HIERARCHY
ROOT Hips
{
    OFFSET 0.000000 0.000000 0.000000
    CHANNELS 6 Xposition Yposition Zposition Zrotation Xrotation Yrotation
    JOINT Spine
    {
        OFFSET -0.000000 7.236184 0.000000
        CHANNELS 3 Zrotation Xrotation Yrotation
        JOINT Spine1
        {
            OFFSET -0.000000 20.420147 0.000000
            CHANNELS 3 Zrotation Xrotation Yrotation
            JOINT Neck
            {
                OFFSET -0.000000 20.336288 1.848754
                CHANNELS 3 Zrotation Xrotation Yrotation
                JOINT Head
                {
                    OFFSET -0.000000 12.354461 -1.764923
                    CHANNELS 3 Zrotation Xrotation Yrotation
                    End Site
                    {
                        OFFSET -0.000000 22.061537 0.000000
                    }
                }
            }
            JOINT LeftShoulder
            {
                OFFSET 3.573296 18.396038 -0.314103
                CHANNELS 3 Zrotation Xrotation Yrotation
                JOINT LeftArm
                {
                    OFFSET 10.880760 0.000000 0.000000
                    CHANNELS 3 Zrotation Xrotation Yrotation
                    JOINT LeftForeArm
                    {
                        OFFSET 27.185530 0.000000 0.000000
                        CHANNELS 3 Zrotation Xrotation Yrotation
                        JOINT LeftHand
                        {
                            OFFSET 27.825975 0.000000 0.000000
                            CHANNELS 3 Zrotation Xrotation Yrotation
                            End Site
                            {
                                OFFSET 13.236923 0.000000 0.000000
                            }
                        }
                    }
                }
            }
            JOINT RightShoulder
            {
                OFFSET -3.474926 18.396038 -0.314103
                CHANNELS 3 Zrotation Xrotation Yrotation
                JOINT RightArm
                {
                    OFFSET -10.880760 0.000000 0.000000
                    CHANNELS 3 Zrotation Xrotation Yrotation
                    JOINT RightForeArm
                    {
                        OFFSET -27.185530 0.000000 0.000000
                        CHANNELS 3 Zrotation Xrotation Yrotation
                        JOINT RightHand
                        {
                            OFFSET -27.825975 0.000000 0.000000
                            CHANNELS 3 Zrotation Xrotation Yrotation
                            End Site
                            {
                                OFFSET -13.236923 0.000000 0.000000
                            }
                        }
                    }
                }
            }
        }
    }
    JOINT LeftUpLeg
    {
        OFFSET 8.824615 0.000000 0.000000
        CHANNELS 3 Zrotation Xrotation Yrotation
        JOINT LeftLeg
        {
            OFFSET -0.000000 -35.111282 0.000000
            CHANNELS 3 Zrotation Xrotation Yrotation
            JOINT LeftFoot
            {
                OFFSET -0.000000 -42.324711 0.000000
                CHANNELS 3 Zrotation Xrotation Yrotation
                JOINT LeftToeBase
                {
                    OFFSET -0.000000 -5.735999 13.236923
                    CHANNELS 3 Zrotation Xrotation Yrotation
                    End Site
                    {
                        OFFSET -0.000000 0.000000 3.529846
                    }
                }
            }
        }
    }
    JOINT RightUpLeg
    {
        OFFSET -8.824615 0.000000 0.000000
        CHANNELS 3 Zrotation Xrotation Yrotation
        JOINT RightLeg
        {
            OFFSET -0.000000 -35.111282 0.000000
            CHANNELS 3 Zrotation Xrotation Yrotation
            JOINT RightFoot
            {
                OFFSET -0.000000 -42.324711 0.000000
                CHANNELS 3 Zrotation Xrotation Yrotation
                JOINT RightToeBase
                {
                    OFFSET -0.000000 -5.735999 13.236923
                    CHANNELS 3 Zrotation Xrotation Yrotation
                    End Site
                    {
                        OFFSET -0.000000 0.000000 3.529846
                    }
                }
            }
        }
    }
}
MOTION
Frames:    12
Frame Time:    0.008333
-26.467762    77.710632    105.886520    0.246068    -4.155137    179.882828    0.366048    -8.140880    0.891334    0.261498    7.675931    0.847826    5.663666    8.305894    0.265593    7.605105    -19.089861    2.170709    -1.323551    19.952587    1.958989    -59.517616    31.643053    -28.833937    9.360736    -12.825957    -18.095041    14.171344    -11.360189    0.040439    9.684833    18.344524    -10.621711    52.652279    36.302742    27.070248    -14.653455    -15.068568    30.176407    -14.195045    -11.382774    1.502916    0.201511    -20.955032    -4.468788    3.035149    41.750290    -0.465996    -3.619957    -21.182411    -8.195934    -0.211185    -1.318334    0.234653    -5.302568    -20.973223    -2.838867    14.351697    49.533005    -10.832916    2.678428    -10.121154    -15.927205    -0.862805    -8.474014    0.944998
-26.438707    77.746704    105.896652    0.278068    -4.180763    179.714188    0.374257    -8.158943    0.905606    0.334060    7.694954    0.856460    5.598012    8.323914    0.289292    7.243558    -19.235649    2.099846    -1.283301    19.852615    1.995260    -59.538765    30.837278    -28.570635    9.652211    -12.562502    -17.904501    13.744131    -11.068759    0.015240    9.645238    18.314379    -10.618417    52.693317    35.527912    26.943645    -14.860058    -15.137225    30.191299    -13.493629    -11.391787    1.555163    0.327766    -20.869366    -4.269466    3.049791    41.566730    -0.432463    -3.707962    -21.095177    -8.267532    -0.202142    -1.320815    0.224607    -5.634621    -21.087811    -3.081504    14.420732    49.661198    -10.645456    2.926881    -9.993456    -15.535796    -0.911074    -8.371621    0.997699
-26.400536    77.793594    105.907524    0.316012    -4.212230    179.556473    0.381869    -8.174595    0.916991    0.411435    7.698431    0.862048    5.532039    8.344375    0.311935    6.902151    -19.365967    2.032139    -1.234616    19.738359    2.039641    -59.563354    29.950125    -28.272617    9.977261    -12.281209    -17.771704    13.409490    -10.750246    -0.013153    9.596472    18.274059    -10.625633    52.762630    34.656303    26.764061    -15.072043    -15.198931    30.238543    -12.880499    -11.386729    1.593347    0.466652    -20.770851    -4.091835    3.046139    41.345543    -0.379965    -3.794461    -20.992662    -8.338981    -0.195275    -1.318104    0.216975    -5.961508    -21.207893    -3.351561    14.433667    49.783623    -10.409791    3.144988    -9.843508    -15.176762    -0.949943    -8.258118    1.040074
-26.348963    77.855865    105.920006    0.363130    -4.252475    179.391113    0.390094    -8.190478    0.927261    0.500638    7.688194    0.865683    5.456526    8.370619    0.335008    6.540264    -19.497074    1.959159    -1.171509    19.594954    2.095887    -59.584549    28.879282    -27.909933    10.365081    -11.950890    -17.682262    13.107429    -10.370028    -0.047375    9.531941    18.218468    -10.642775    52.862858    33.586926    26.517389    -15.312684    -15.257399    30.327015    -12.273794    -11.363237    1.621575    0.632309    -20.648262    -3.915700    3.024767    41.063629    -0.302033    -3.889377    -20.864147    -8.418596    -0.189395    -1.310318    0.210439    -6.321546    -21.342241    -3.680968    14.385688    49.908195    -10.094536    3.352728    -9.660742    -14.819341    -0.982172    -8.124418    1.075131
-26.288187    77.927505    105.932404    0.414045    -4.297256    179.236206    0.398709    -8.205332    0.935352    0.590171    7.664461    0.867271    5.378372    8.401943    0.355361    6.195464    -19.615425    1.887737    -1.097996    19.433628    2.157823    -59.589161    27.727562    -27.520210    10.771472    -11.605663    -17.653240    12.857945    -9.966635    -0.081776    9.456149    18.151371    -10.667968    52.980614    32.418598    26.228268    -15.556891    -15.302398    30.455467    -11.733108    -11.318185    1.636091    0.807436    -20.512972    -3.761729    2.986890    40.748276    -0.205465    -3.982067    -20.722404    -8.497062    -0.185064    -1.297543    0.205621    -6.678022    -21.472040    -4.038321    14.270026    50.014175    -9.725809    3.520596    -9.468836    -14.513290    -1.001782    -7.989370    1.096360
-26.220495    78.005005    105.944061    0.465924    -4.344568    179.094696    0.407623    -8.219493    0.941582    0.675861    7.629833    0.867305    5.298288    8.437455    0.370197    5.875031    -19.719027    1.820777    -1.016012    19.257706    2.221745    -59.567287    26.534452    -27.118753    11.176589    -11.257333    -17.680952    12.645061    -9.554364    -0.113184    9.370613    18.074141    -10.698096    53.105373    31.190035    25.911545    -15.796622    -15.330808    30.621021    -11.254398    -11.250943    1.637979    0.985364    -20.370375    -3.631634    2.935783    40.413486    -0.095944    -4.069822    -20.573637    -8.571283    -0.182122    -1.281296    0.202347    -7.023083    -21.590168    -4.409500    14.093324    50.093994    -9.319570    3.644888    -9.279444    -14.268935    -1.008813    -7.861979    1.103830
-26.140087    78.094063    105.955734    0.522379    -4.397899    178.953766    0.418062    -8.234378    0.946830    0.763406    7.581861    0.866194    5.208724    8.480648    0.386184    5.546504    -19.817974    1.745422    -0.916933    19.050837    2.291245    -59.505493    25.201931    -26.675060    11.608048    -10.877372    -17.765810    12.435001    -9.099651    -0.142608    9.266298    17.979801    -10.733972    53.240036    29.796936    25.546072    -16.049829    -15.342901    30.841026    -10.783548    -11.153301    1.626402    1.180680    -20.209177    -3.512294    2.868501    40.033707    0.032931    -4.159940    -20.406368    -8.646411    -0.179733    -1.260567    0.199685    -7.387561    -21.703341    -4.821965    13.842276    50.148705    -8.845122    3.736582    -9.081065    -14.068193    -1.004085    -7.735198    1.098437
-26.044485    78.195862    105.967186    0.583157    -4.457983    178.813385    0.430298    -8.250695    0.951129    0.851656    7.518789    0.864141    5.106734    8.533639    0.396716    5.209695    -19.911211    1.666281    -0.796516    18.805325    2.364491    -59.383675    23.711300    -26.183552    12.064154    -10.462524    -17.916716    12.216129    -8.597451    -0.167005    9.137909    17.863735    -10.774228    53.378742    28.211077    25.126202    -16.316162    -15.334208    31.128815    -10.312369    -11.017989    1.598005    1.395828    -20.027153    -3.404534    2.782816    39.603928    0.181415    -4.252229    -20.218687    -8.720643    -0.178054    -1.235916    0.197810    -7.775892    -21.807354    -5.277283    13.506131    50.166916    -8.296008    3.790000    -8.875958    -13.921190    -0.986308    -7.612897    1.078780
-25.943512    78.298393    105.976845    0.640526    -4.517769    178.689865    0.443375    -8.266635    0.954206    0.928189    7.447019    0.861705    5.003107    8.590951    0.402968    4.900710    -19.987391    1.588418    -0.665114    18.545654    2.431092    -59.200356    22.235882    -25.699192    12.488352    -10.061628    -18.118219    12.003553    -8.105969    -0.178919    8.997033    17.736988    -10.812694    53.498409    26.609335    24.698969    -16.563704    -15.304629    31.457279    -9.887486    -10.858524    1.556040    1.606765    -19.845072    -3.319651    2.688707    39.173908    0.328618    -4.335390    -20.032721    -8.782864    -0.177306    -1.211378    0.196970    -8.144958    -21.886189    -5.717776    13.122698    50.136940    -7.738276    3.798016    -8.690315    -13.848302    -0.957457    -7.512981    1.047059
-25.839870    78.398354    105.984650    0.692873    -4.575686    178.583252    0.456788    -8.281777    0.956295    0.991914    7.369545    0.859358    4.899474    8.650653    0.403069    4.621980    -20.047194    1.515177    -0.526331    18.278111    2.487947    -58.956860    20.815859    -25.231619    12.872411    -9.684280    -18.355284    11.795468    -7.637352    -0.176153    8.846738    17.602680    -10.846945    53.591927    25.034180    24.276609    -16.788441    -15.259149    31.814325    -9.506345    -10.683092    1.502748    1.809179    -19.667864    -3.253871    2.591000    38.755566    0.466983    -4.408914    -19.853498    -8.831931    -0.177394    -1.188844    0.197060    -8.490114    -21.939619    -6.128494    12.713001    50.060410    -7.193247    3.770588    -8.526295    -13.835583    -0.920883    -7.435771    1.006941
-25.715631    78.511848    105.991890    0.748446    -4.641243    178.474960    0.472885    -8.298838    0.958063    1.052461    7.273759    0.856893    4.778102    8.722147    0.399124    4.323570    -20.100529    1.431364    -0.355100    17.956053    2.542117    -58.600071    19.218773    -24.701420    13.279233    -9.269101    -18.662672    11.553794    -7.115178    -0.157577    8.660224    17.437088    -10.880894    53.665344    23.220945    23.791117    -17.024920    -15.191517    32.261078    -9.102123    -10.463802    1.425687    2.037391    -19.465906    -3.192846    2.475287    38.279697    0.614480    -4.485058    -19.651663    -8.874370    -0.178498    -1.165822    0.198279    -8.870896    -21.975403    -6.571793    12.215702    49.919006    -6.576699    3.708160    -8.354622    -13.872467    -0.871635    -7.368510    0.952990
-25.584412    78.624031    105.997429    0.799173    -4.706136    178.380142    0.489825    -8.315156    0.959362    1.099225    7.169964    0.854898    4.652750    8.797483    0.390087    4.044596    -20.139563    1.347952    -0.168847    17.614845    2.583028    -58.151703    17.655741    -24.170437    13.654634    -8.872728    -19.004164    11.307080    -6.608665    -0.118673    8.455961    17.257109    -10.908064    53.698650    21.395945    23.299501    -17.242376    -15.111203    32.747658    -8.729177    -10.228058    1.332499    2.263212    -19.264671    -3.142996    2.357323    37.806400    0.746027    -4.553630    -19.453175    -8.901638    -0.180668    -1.146988    0.200681    -9.239230    -21.983862    -6.981491    11.693947    49.716248    -5.972561    3.619212    -8.197494    -13.953340    -0.815500    -7.322958    0.891553
